<svg width="99" height="98" viewBox="0 0 99 98" fill="none" xmlns="http://www.w3.org/2000/svg">
<g filter="url(#filter0_d_4249_3098)">
<path d="M48.5 0L53.8255 7.54905L60.9233 1.63556L64.1135 10.3057L72.5 6.43078L73.3375 15.6312L82.4411 14.0589L80.8688 23.1625L90.0692 24L86.1943 32.3865L94.8644 35.5767L88.951 42.6745L96.5 48L88.951 53.3255L94.8644 60.4233L86.1943 63.6135L90.0692 72L80.8688 72.8375L82.4411 81.9411L73.3375 80.3688L72.5 89.5692L64.1135 85.6943L60.9233 94.3644L53.8255 88.451L48.5 96L43.1745 88.451L36.0767 94.3644L32.8865 85.6943L24.5 89.5692L23.6625 80.3688L14.5589 81.9411L16.1312 72.8375L6.93078 72L10.8057 63.6135L2.13556 60.4233L8.04905 53.3255L0.5 48L8.04905 42.6745L2.13556 35.5767L10.8057 32.3865L6.93078 24L16.1312 23.1625L14.5589 14.0589L23.6625 15.6312L24.5 6.43078L32.8865 10.3057L36.0767 1.63556L43.1745 7.54905L48.5 0Z" fill="#CBEBD3"/>
<path d="M54.4656 8.31734L60.4743 3.31121L63.175 10.651L63.5492 11.668L64.5329 11.2135L71.6326 7.93313L72.3416 15.7218L72.4398 16.801L73.5077 16.6166L81.2145 15.2855L79.8834 22.9923L79.699 24.0602L80.7782 24.1584L88.5669 24.8674L85.2865 31.9671L84.832 32.9508L85.849 33.325L93.1888 36.0257L88.1827 42.0344L87.489 42.867L88.3745 43.4917L94.7652 48L88.3745 52.5083L87.489 53.133L88.1827 53.9656L93.1888 59.9743L85.849 62.675L84.832 63.0492L85.2865 64.0329L88.5669 71.1326L80.7782 71.8416L79.699 71.9398L79.8834 73.0077L81.2145 80.7145L73.5077 79.3834L72.4398 79.199L72.3416 80.2782L71.6326 88.0669L64.5329 84.7865L63.5492 84.332L63.175 85.349L60.4743 92.6888L54.4656 87.6827L53.633 86.989L53.0083 87.8745L48.5 94.2652L43.9917 87.8745L43.367 86.989L42.5344 87.6827L36.5257 92.6888L33.825 85.349L33.4508 84.332L32.4671 84.7865L25.3674 88.0669L24.6584 80.2782L24.5602 79.199L23.4923 79.3834L15.7855 80.7145L17.1166 73.0077L17.301 71.9398L16.2218 71.8416L8.43313 71.1326L11.7135 64.0329L12.168 63.0492L11.151 62.675L3.81121 59.9743L8.81734 53.9656L9.51099 53.133L8.6255 52.5083L2.23477 48L8.6255 43.4917L9.51099 42.867L8.81734 42.0344L3.81121 36.0257L11.151 33.325L12.168 32.9508L11.7135 31.9671L8.43313 24.8674L16.2218 24.1584L17.301 24.0602L17.1166 22.9923L15.7855 15.2855L23.4923 16.6166L24.5602 16.801L24.6584 15.7218L25.3674 7.93313L32.4671 11.2135L33.4508 11.668L33.825 10.651L36.5257 3.31121L42.5344 8.31734L43.367 9.01099L43.9917 8.1255L48.5 1.73477L53.0083 8.1255L53.633 9.01099L54.4656 8.31734Z" stroke="#171A1C" stroke-width="2"/>
</g>
<path d="M44 53.5598L38.44 47.9998L36.5466 49.8798L44 57.3331L60 41.3331L58.12 39.4531L44 53.5598Z" fill="#171A1C"/>
<defs>
<filter id="filter0_d_4249_3098" x="0.5" y="0" width="98" height="98" filterUnits="userSpaceOnUse" color-interpolation-filters="sRGB">
<feFlood flood-opacity="0" result="BackgroundImageFix"/>
<feColorMatrix in="SourceAlpha" type="matrix" values="0 0 0 0 0 0 0 0 0 0 0 0 0 0 0 0 0 0 127 0" result="hardAlpha"/>
<feOffset dx="2" dy="2"/>
<feComposite in2="hardAlpha" operator="out"/>
<feColorMatrix type="matrix" values="0 0 0 0 0 0 0 0 0 0 0 0 0 0 0 0 0 0 1 0"/>
<feBlend mode="normal" in2="BackgroundImageFix" result="effect1_dropShadow_4249_3098"/>
<feBlend mode="normal" in="SourceGraphic" in2="effect1_dropShadow_4249_3098" result="shape"/>
</filter>
</defs>
</svg>
